<svg width="26" height="27" viewBox="0 0 26 27" fill="none" xmlns="http://www.w3.org/2000/svg">
<g clip-path="url(#clip0_235_1053)">
<path d="M0.554805 12.9457C0.554195 15.1473 1.12945 17.297 2.22327 19.1917L0.450195 25.6655L7.07532 23.9284C8.90775 24.9259 10.9608 25.4486 13.0472 25.4488H13.0527C19.9401 25.4488 25.5467 19.8442 25.5496 12.9556C25.551 9.61752 24.2522 6.47863 21.8925 4.11709C19.5332 1.75577 16.3954 0.454648 13.0522 0.453125C6.1639 0.453125 0.55775 6.05734 0.554906 12.9457" fill="url(#paint0_linear_235_1053)"/>
<path d="M0.108672 12.9407C0.107961 15.2215 0.703828 17.448 1.83666 19.4106L0 26.1165L6.86268 24.3171C8.75357 25.3481 10.8825 25.8916 13.0489 25.8924H13.0544C20.189 25.8924 25.997 20.0863 26 12.951C26.0012 9.49305 24.6557 6.24132 22.2117 3.79519C19.7674 1.34936 16.5174 0.00142188 13.0544 0C5.91866 0 0.111516 5.80531 0.108672 12.9407ZM4.19565 19.0726L3.93941 18.6659C2.86223 16.9531 2.29369 14.9739 2.2945 12.9415C2.29673 7.01076 7.12339 2.18563 13.0585 2.18563C15.9327 2.18684 18.6339 3.30728 20.6655 5.34016C22.6971 7.37323 23.815 10.0758 23.8143 12.9502C23.8116 18.881 18.9849 23.7067 13.0544 23.7067H13.0502C11.1192 23.7057 9.22533 23.1871 7.57372 22.2071L7.18067 21.9741L3.10822 23.0418L4.19565 19.0726Z" fill="url(#paint1_linear_235_1053)"/>
<path d="M9.81898 7.53127C9.57666 6.99268 9.32163 6.98181 9.09119 6.97237C8.90248 6.96424 8.68677 6.96485 8.47125 6.96485C8.25553 6.96485 7.90504 7.046 7.60878 7.36948C7.31222 7.69326 6.47656 8.4757 6.47656 10.0671C6.47656 11.6585 7.6357 13.1965 7.79728 13.4125C7.95907 13.6282 10.035 16.9984 13.3228 18.295C16.0552 19.3724 16.6113 19.1581 17.2043 19.1041C17.7974 19.0503 19.1181 18.3219 19.3876 17.5666C19.6572 16.8113 19.6572 16.164 19.5764 16.0287C19.4956 15.8939 19.2798 15.813 18.9564 15.6513C18.6329 15.4896 17.0425 14.707 16.7461 14.599C16.4495 14.4911 16.2339 14.4373 16.0182 14.7612C15.8024 15.0846 15.183 15.813 14.9942 16.0287C14.8056 16.2449 14.6168 16.2718 14.2934 16.11C13.9697 15.9478 12.928 15.6066 11.6921 14.5048C10.7305 13.6474 10.0813 12.5886 9.89262 12.2647C9.70391 11.9413 9.87241 11.766 10.0346 11.6048C10.1799 11.4599 10.3582 11.2271 10.5201 11.0383C10.6814 10.8494 10.7352 10.7146 10.843 10.4989C10.951 10.283 10.897 10.0941 10.8162 9.93231C10.7352 9.77052 10.1066 8.17081 9.81898 7.53127Z" fill="white"/>
</g>
<defs>
<linearGradient id="paint0_linear_235_1053" x1="1255.42" y1="2521.69" x2="1255.42" y2="0.453125" gradientUnits="userSpaceOnUse">
<stop stop-color="#1FAF38"/>
<stop offset="1" stop-color="#60D669"/>
</linearGradient>
<linearGradient id="paint1_linear_235_1053" x1="1300" y1="2611.65" x2="1300" y2="0" gradientUnits="userSpaceOnUse">
<stop stop-color="#F9F9F9"/>
<stop offset="1" stop-color="white"/>
</linearGradient>
<clipPath id="clip0_235_1053">
<rect width="26" height="26.2031" fill="white"/>
</clipPath>
</defs>
</svg>
