<svg width="22" height="22" viewBox="0 0 22 22" fill="none" xmlns="http://www.w3.org/2000/svg">
<g clip-path="url(#clip0_235_1059)">
<path d="M4.68457 13.8728C4.68457 15.1327 3.6571 16.1617 2.39709 16.1617C1.13707 16.1617 0.108398 15.1327 0.108398 13.8728C0.108398 12.613 1.13741 11.584 2.39726 11.584H4.68474L4.68457 13.8728ZM5.83768 13.8728C5.83768 12.613 6.86669 11.584 8.12654 11.584C9.38638 11.584 10.4154 12.6128 10.4154 13.8728V19.6023C10.4154 20.8621 9.38655 21.8912 8.12654 21.8912C6.86669 21.8912 5.83768 20.8621 5.83768 19.6023V13.8728Z" fill="#DE1C59"/>
<path d="M8.12654 4.68359C6.86669 4.68359 5.83768 3.65612 5.83768 2.39611C5.83768 1.13609 6.86669 0.107422 8.12654 0.107422C9.38638 0.107422 10.4154 1.13644 10.4154 2.39628V4.68376L8.12654 4.68359ZM8.12654 5.8367C9.38638 5.8367 10.4154 6.86572 10.4154 8.12556C10.4154 9.3854 9.38655 10.4144 8.12654 10.4144H2.39709C1.13724 10.4144 0.108398 9.38558 0.108398 8.12556C0.108398 6.86572 1.13741 5.8367 2.39726 5.8367H8.12654Z" fill="#35C5F0"/>
<path d="M17.3158 8.12556C17.3158 6.86572 18.3433 5.8367 19.6033 5.8367C20.8633 5.8367 21.8921 6.86572 21.8921 8.12556C21.8921 9.3854 20.8631 10.4144 19.6033 10.4144H17.3158V8.12556ZM16.1627 8.12556C16.1627 9.3854 15.1337 10.4144 13.8738 10.4144C12.614 10.4144 11.585 9.38558 11.585 8.12556V2.39611C11.585 1.13627 12.6138 0.107422 13.8738 0.107422C15.1337 0.107422 16.1627 1.13644 16.1627 2.39628V8.12556Z" fill="#2EB57D"/>
<path d="M13.8738 17.3148C15.1337 17.3148 16.1627 18.3423 16.1627 19.6023C16.1627 20.8623 15.1337 21.8912 13.8738 21.8912C12.614 21.8912 11.585 20.8621 11.585 19.6023V17.3148H13.8738ZM13.8738 16.1617C12.614 16.1617 11.585 15.1327 11.585 13.8728C11.585 12.613 12.6138 11.584 13.8738 11.584H19.6033C20.8631 11.584 21.8921 12.6128 21.8921 13.8728C21.8921 15.1327 20.8631 16.1617 19.6033 16.1617H13.8738Z" fill="#EBB02E"/>
</g>
<defs>
<clipPath id="clip0_235_1059">
<rect width="22" height="22" fill="white"/>
</clipPath>
</defs>
</svg>
