<svg width="28" height="28" viewBox="0 0 28 28" fill="none" xmlns="http://www.w3.org/2000/svg">
<path opacity="0.9" d="M17.8057 13.5762L23.3889 19.1594L22.5965 19.9512L17.0133 14.368L17.8057 13.5762ZM10.2357 13.6003L11.0275 14.3921L5.48349 19.9361L4.69165 19.1465L10.2357 13.6003Z" fill="black"/>
<path d="M13.9999 16.7438C13.1599 16.7438 12.2639 16.4078 11.6479 15.7358L4.64795 8.79181L5.43195 8.00781L12.4319 15.0078C13.3279 15.9038 14.7279 15.9038 15.6239 15.0078L22.624 8.00781L23.4079 8.79181L16.3519 15.7918C15.736 16.4078 14.8399 16.7438 13.9999 16.7438Z" fill="black"/>
<path d="M21.84 21.2807H6.15998C5.20798 21.2807 4.47998 20.5527 4.47998 19.6007V8.4007C4.47998 7.4487 5.20798 6.7207 6.15998 6.7207H21.84C22.792 6.7207 23.52 7.4487 23.52 8.4007V19.6007C23.52 20.5527 22.792 21.2807 21.84 21.2807ZM6.15998 7.8407C5.82398 7.8407 5.59998 8.0647 5.59998 8.4007V19.6007C5.59998 19.9367 5.82398 20.1607 6.15998 20.1607H21.84C22.176 20.1607 22.4 19.9367 22.4 19.6007V8.4007C22.4 8.0647 22.176 7.8407 21.84 7.8407H6.15998Z" fill="black"/>
</svg>
