<svg width="22" height="22" viewBox="0 0 22 22" fill="none" xmlns="http://www.w3.org/2000/svg">
<g clip-path="url(#clip0_235_1066)">
<path d="M19.9375 0.515704H2.0625C1.65693 0.511577 1.26628 0.668509 0.976282 0.952066C0.686281 1.23562 0.520611 1.62264 0.515625 2.0282V19.9754C0.521513 20.3804 0.687579 20.7665 0.977482 21.0493C1.26739 21.3321 1.65752 21.4886 2.0625 21.4845H19.9375C20.3431 21.4877 20.7335 21.3302 21.0233 21.0465C21.3132 20.7627 21.4789 20.3758 21.4844 19.9702V2.02305C21.4771 1.61868 21.3106 1.2335 21.0209 0.951245C20.7313 0.66899 20.3419 0.512469 19.9375 0.515704Z" fill="#0076B2"/>
<path d="M3.61957 8.375H6.73223V18.3902H3.61957V8.375ZM5.17676 3.39063C5.53377 3.39063 5.88275 3.49651 6.17957 3.69489C6.47638 3.89327 6.70769 4.17522 6.84424 4.50509C6.98078 4.83495 7.01642 5.1979 6.94664 5.54802C6.87687 5.89814 6.70482 6.21971 6.45226 6.47203C6.19969 6.72435 5.87797 6.89609 5.52778 6.96553C5.17759 7.03497 4.81468 6.99899 4.48494 6.86213C4.15521 6.72528 3.87347 6.4937 3.67538 6.19669C3.47729 5.89969 3.37173 5.5506 3.37207 5.19359C3.37253 4.71526 3.56286 4.25667 3.90126 3.9186C4.23965 3.58052 4.69842 3.39062 5.17676 3.39063ZM8.68473 8.375H11.6685V9.75H11.7097C12.1257 8.96281 13.1397 8.13266 14.6539 8.13266C17.8061 8.12578 18.3905 10.2003 18.3905 12.8902V18.3902H15.2779V13.5175C15.2779 12.3573 15.2572 10.8638 13.6605 10.8638C12.0638 10.8638 11.7922 12.1288 11.7922 13.4419V18.3902H8.68473V8.375Z" fill="white"/>
</g>
<defs>
<clipPath id="clip0_235_1066">
<rect width="22" height="22" fill="white"/>
</clipPath>
</defs>
</svg>
