<svg width="24" height="24" viewBox="0 0 24 24" fill="none" xmlns="http://www.w3.org/2000/svg">
<path d="M7.82912 16.1715C5.67853 14.0167 4.02464 11.4182 2.98312 8.55751C2.41012 6.99351 2.93512 5.27551 4.11312 4.09751L4.84212 3.36951C5.03811 3.17313 5.2709 3.01733 5.52718 2.91102C5.78345 2.80472 6.05817 2.75 6.33562 2.75C6.61307 2.75 6.88779 2.80472 7.14407 2.91102C7.40034 3.01733 7.63313 3.17313 7.82912 3.36951L9.53612 5.07651C9.7325 5.2725 9.88831 5.50529 9.99461 5.76157C10.1009 6.01784 10.1556 6.29256 10.1556 6.57001C10.1556 6.84746 10.1009 7.12218 9.99461 7.37846C9.88831 7.63473 9.7325 7.86752 9.53612 8.06351L9.11612 8.48351C8.94801 8.65159 8.81465 8.85114 8.72366 9.07076C8.63268 9.29039 8.58585 9.52579 8.58585 9.76351C8.58585 10.0012 8.63268 10.2366 8.72366 10.4563C8.81465 10.6759 8.94801 10.8754 9.11612 11.0435L12.9561 14.8845C13.1242 15.0526 13.3238 15.186 13.5434 15.277C13.763 15.368 13.9984 15.4148 14.2361 15.4148C14.4738 15.4148 14.7092 15.368 14.9289 15.277C15.1485 15.186 15.348 15.0526 15.5161 14.8845L15.9371 14.4645C16.1331 14.2681 16.3659 14.1123 16.6222 14.006C16.8785 13.8997 17.1532 13.845 17.4306 13.845C17.7081 13.845 17.9828 13.8997 18.2391 14.006C18.4953 14.1123 18.7281 14.2681 18.9241 14.4645L20.6311 16.1715C20.8275 16.3675 20.9833 16.6003 21.0896 16.8566C21.1959 17.1128 21.2506 17.3876 21.2506 17.665C21.2506 17.9425 21.1959 18.2172 21.0896 18.4735C20.9833 18.7297 20.8275 18.9625 20.6311 19.1585L19.9031 19.8865C18.7251 21.0655 17.0071 21.5905 15.4431 21.0175C12.5825 19.976 9.98389 18.3221 7.82912 16.1715Z" stroke="black" stroke-width="1.5" stroke-linejoin="round"/>
</svg>
