<svg width="26" height="27" viewBox="0 0 26 27" fill="none" xmlns="http://www.w3.org/2000/svg">
<path d="M20.404 20.2131C20.404 21.6193 17.1337 22.7523 13.1017 22.7523C9.06963 22.7523 5.79932 21.6092 5.79932 20.2131C5.79932 18.8069 9.06963 17.6738 13.1017 17.6738C17.1337 17.6738 20.404 18.8069 20.404 20.2131Z" fill="#9EDCF2"/>
<mask id="mask0_235_1071" style="mask-type:luminance" maskUnits="userSpaceOnUse" x="8" y="19" width="10" height="8">
<path d="M9.96348 24.7647C10.126 25.5234 10.5221 25.9686 10.9182 26.2316H15.0924C15.6002 25.8876 16.1182 25.2402 16.1182 24.0262V20.8901C16.1182 20.8901 16.1791 20.1111 16.9002 19.8582C16.9002 19.8582 17.3166 19.5648 16.8697 19.4029C16.8697 19.4029 14.8893 19.2411 14.8893 20.8597V23.2472C14.8893 23.2472 14.9705 24.1274 14.5033 24.4915V21.5375C14.5033 21.5375 14.5338 20.5967 15.0213 20.2426C15.0213 20.2426 15.3463 19.666 14.6354 19.8177C14.6354 19.8177 13.2744 20.0099 13.2135 21.5982L13.183 24.6332H12.858L12.8275 21.5982C12.7666 20.02 11.4057 19.8177 11.4057 19.8177C10.6947 19.6558 11.0197 20.2426 11.0197 20.2426C11.5072 20.5967 11.5377 21.5375 11.5377 21.5375V24.5219C11.0705 24.188 11.1518 23.2472 11.1518 23.2472V20.8597C11.1518 19.2411 9.1713 19.4029 9.1713 19.4029C8.71427 19.5648 9.14083 19.8582 9.14083 19.8582C9.85177 20.1212 9.92286 20.8901 9.92286 20.8901V23.0853L9.96348 24.7647Z" fill="white"/>
</mask>
<g mask="url(#mask0_235_1071)">
<path d="M20.404 20.2131C20.404 21.6193 17.1337 22.7523 13.1017 22.7523C9.06963 22.7523 5.79932 21.6092 5.79932 20.2131C5.79932 18.8069 9.06963 17.6738 13.1017 17.6738C17.1337 17.6738 20.404 18.8069 20.404 20.2131Z" fill="#7DBCE7"/>
</g>
<path d="M4.76308 12.7363L4.5498 13.4647C4.5498 13.4647 4.49902 13.7277 4.74277 13.7783C5.00683 13.7682 4.98652 13.5254 4.96621 13.4546L4.76308 12.7363Z" fill="#9EDCF2"/>
<path d="M25.9797 9.6721L26 9.58105C23.857 9.15616 21.6633 9.14604 20.3328 9.20674C20.5461 8.42777 20.6172 7.51728 20.6172 6.51575C20.6172 5.06908 20.0688 3.9158 19.1953 3.04578C19.3477 2.55007 19.5508 1.44737 18.9922 0.0411719C18.9922 0.0411719 17.9969 -0.27244 15.732 1.23492C14.8484 1.01236 13.9039 0.901076 12.9594 0.901076C11.9234 0.901076 10.8773 1.03259 9.89219 1.29562C7.55625 -0.292673 6.53047 0.0310554 6.53047 0.0310554C5.86016 1.70028 6.27656 2.94461 6.39844 3.24811C5.60625 4.0979 5.12891 5.18037 5.12891 6.50563C5.12891 7.50717 5.24063 8.40754 5.525 9.18651C4.18438 9.13593 2.07187 9.15616 0 9.57094L0.0203125 9.66199C2.09219 9.24721 4.225 9.23709 5.55547 9.28767C5.61641 9.44954 5.6875 9.6114 5.75859 9.76315C4.43828 9.80362 2.19375 9.9756 0.040625 10.5826L0.0710937 10.6736C2.24453 10.0666 4.50938 9.90478 5.81953 9.86432C6.61172 11.3211 8.15547 12.272 10.918 12.5654C10.5219 12.8285 10.1258 13.2736 9.96328 14.0323C9.425 14.2852 7.73906 14.9125 6.72344 13.1724C6.72344 13.1724 6.15469 12.1405 5.06797 12.0596C5.06797 12.0596 4.01172 12.0394 4.99688 12.7172C4.99688 12.7172 5.69766 13.051 6.18516 14.2954C6.18516 14.2954 6.825 16.4198 9.88203 15.7319V17.907C9.88203 17.907 9.82109 18.6859 9.1 18.9388C9.1 18.9388 8.67344 19.2322 9.13047 19.3941C9.13047 19.3941 11.1109 19.5559 11.1109 17.9373V15.5498C11.1109 15.5498 11.0297 14.5989 11.4969 14.2751V18.2003C11.4969 18.2003 11.4664 19.1412 10.9789 19.4952C10.9789 19.4952 10.6539 20.0719 11.3648 19.9201C11.3648 19.9201 12.7258 19.7279 12.7867 18.1396L12.8172 14.1638H13.1422L13.1727 18.1396C13.2336 19.7178 14.5945 19.9201 14.5945 19.9201C15.3055 20.082 14.9805 19.4952 14.9805 19.4952C14.493 19.1412 14.4625 18.2003 14.4625 18.2003V14.3055C14.9297 14.6697 14.8484 15.5498 14.8484 15.5498V17.9373C14.8484 19.5559 16.8289 19.3941 16.8289 19.3941C17.2859 19.2322 16.8594 18.9388 16.8594 18.9388C16.1484 18.6758 16.0773 17.907 16.0773 17.907V14.7708C16.0773 13.5467 15.5594 12.8993 15.0516 12.5654C17.9969 12.272 19.4086 11.3312 20.0586 9.8542C21.3484 9.88455 23.6742 10.0464 25.8883 10.6736L25.9187 10.5826C23.7148 9.96548 21.4094 9.80362 20.0992 9.76315C20.1602 9.6114 20.2109 9.45965 20.2617 9.29779C21.6227 9.24721 23.8266 9.24721 25.9797 9.6721Z" fill="#010101"/>
<path d="M17.7329 6.44388C18.3626 7.02052 18.7384 7.70845 18.7384 8.44695C18.7384 11.927 16.1384 12.0181 12.929 12.0181C9.71963 12.0181 7.11963 11.5325 7.11963 8.44695C7.11963 7.70845 7.48525 7.02052 8.11494 6.454C9.16104 5.50304 10.9282 6.00887 12.929 6.00887C14.9298 6.00887 16.6868 5.49293 17.7329 6.44388Z" fill="#F5CCB3"/>
<path d="M10.9992 8.62846C10.9992 9.58953 10.4609 10.3584 9.79063 10.3584C9.12031 10.3584 8.58203 9.57941 8.58203 8.62846C8.58203 7.66739 9.12031 6.89853 9.79063 6.89853C10.4609 6.88842 10.9992 7.66739 10.9992 8.62846Z" fill="white"/>
<path d="M10.6135 8.64938C10.6135 9.28672 10.2479 9.80266 9.81113 9.80266C9.36426 9.80266 9.00879 9.28672 9.00879 8.64938C9.00879 8.01204 9.37441 7.49609 9.81113 7.49609C10.2479 7.49609 10.6135 8.01204 10.6135 8.64938Z" fill="#AF5C51"/>
<path d="M17.489 8.62846C17.489 9.58953 16.9507 10.3584 16.2804 10.3584C15.6101 10.3584 15.0718 9.57941 15.0718 8.62846C15.0718 7.66739 15.6101 6.89853 16.2804 6.89853C16.9405 6.88842 17.489 7.66739 17.489 8.62846Z" fill="white"/>
<path d="M17.0931 8.64938C17.0931 9.28672 16.7275 9.80266 16.2907 9.80266C15.8439 9.80266 15.4884 9.28672 15.4884 8.64938C15.4884 8.01204 15.854 7.49609 16.2907 7.49609C16.7376 7.49609 17.0931 8.01204 17.0931 8.64938ZM13.254 10.1669C13.254 10.3287 13.122 10.4704 12.9493 10.4704C12.7868 10.4704 12.6446 10.3388 12.6446 10.1669C12.6446 9.99488 12.7767 9.86336 12.9493 9.86336C13.1118 9.86336 13.254 9.99488 13.254 10.1669ZM12.2486 10.9256C12.2282 10.875 12.2587 10.8244 12.3095 10.8042C12.3603 10.784 12.4111 10.8143 12.4314 10.8649C12.5126 11.0875 12.7157 11.2291 12.9493 11.2291C13.1829 11.2291 13.3861 11.0773 13.4673 10.8649C13.4876 10.8143 13.5384 10.784 13.5892 10.8042C13.64 10.8244 13.6704 10.875 13.6501 10.9256C13.5485 11.219 13.2642 11.4213 12.9493 11.4213C12.6345 11.4213 12.3501 11.219 12.2486 10.9256Z" fill="#AF5C51"/>
<path d="M5.53496 12.3018C5.53496 12.3827 5.44355 12.4434 5.32168 12.4434C5.20996 12.4434 5.1084 12.3827 5.1084 12.3018C5.1084 12.2209 5.1998 12.1602 5.32168 12.1602C5.44355 12.1602 5.53496 12.2209 5.53496 12.3018ZM6.12402 12.6255C6.12402 12.7064 6.03262 12.7671 5.91074 12.7671C5.79902 12.7671 5.69746 12.7064 5.69746 12.6255C5.69746 12.5446 5.78887 12.4839 5.91074 12.4839C6.03262 12.4839 6.12402 12.5446 6.12402 12.6255ZM6.47949 13.0504C6.47949 13.1313 6.38809 13.192 6.26621 13.192C6.15449 13.192 6.05293 13.1313 6.05293 13.0504C6.05293 12.9695 6.14434 12.9088 6.26621 12.9088C6.38809 12.8987 6.47949 12.9695 6.47949 13.0504ZM6.80449 13.536C6.80449 13.6169 6.71309 13.6776 6.59121 13.6776C6.47949 13.6776 6.37793 13.6169 6.37793 13.536C6.37793 13.4551 6.46934 13.3944 6.59121 13.3944C6.71309 13.3843 6.80449 13.4551 6.80449 13.536ZM7.15996 13.9811C7.15996 14.0621 7.06855 14.1228 6.94668 14.1228C6.83496 14.1228 6.7334 14.0621 6.7334 13.9811C6.7334 13.9002 6.8248 13.8395 6.94668 13.8395C7.06855 13.8395 7.15996 13.9002 7.15996 13.9811ZM7.64746 14.3757C7.64746 14.4566 7.55605 14.5173 7.43418 14.5173C7.32246 14.5173 7.2209 14.4566 7.2209 14.3757C7.2209 14.2947 7.3123 14.234 7.43418 14.234C7.55605 14.2239 7.64746 14.2947 7.64746 14.3757ZM8.32793 14.6286C8.32793 14.7095 8.23652 14.7702 8.11465 14.7702C8.00293 14.7702 7.90137 14.7095 7.90137 14.6286C7.90137 14.5477 7.99277 14.487 8.11465 14.487C8.23652 14.487 8.32793 14.5477 8.32793 14.6286ZM9.0084 14.6286C9.0084 14.7095 8.91699 14.7702 8.79512 14.7702C8.6834 14.7702 8.58184 14.7095 8.58184 14.6286C8.58184 14.5477 8.67324 14.487 8.79512 14.487C8.91699 14.487 9.0084 14.5477 9.0084 14.6286ZM9.69902 14.5173C9.69902 14.5982 9.60762 14.6589 9.48574 14.6589C9.37402 14.6589 9.27246 14.5982 9.27246 14.5173C9.27246 14.4364 9.36387 14.3757 9.48574 14.3757C9.59746 14.3757 9.69902 14.4364 9.69902 14.5173Z" fill="#C4E5D9"/>
</svg>
