<svg width="36" height="36" viewBox="0 0 36 36" fill="none" xmlns="http://www.w3.org/2000/svg">
<path fill-rule="evenodd" clip-rule="evenodd" d="M17.498 7.57305C18.5558 6.5484 19.974 5.98067 21.4466 5.99236C22.9192 6.00406 24.3282 6.59425 25.3695 7.63558C26.4109 8.67692 27.001 10.0859 27.0127 11.5585C27.0244 13.0311 26.4567 14.4493 25.432 15.5071L25.4242 15.5149L22.4514 18.4877C21.8824 19.0563 21.1979 19.4959 20.4443 19.7768C19.6906 20.0577 18.8854 20.1734 18.0831 20.116C17.2809 20.0587 16.5003 19.8296 15.7943 19.4442C15.0883 19.0589 14.4733 18.5264 13.9911 17.8827C13.8866 17.7434 13.8418 17.5684 13.8664 17.3961C13.891 17.2238 13.9831 17.0684 14.1223 16.9639C14.2615 16.8595 14.4366 16.8147 14.6089 16.8393C14.7812 16.8639 14.9366 16.9559 15.041 17.0952C15.4102 17.5888 15.8812 17.9973 16.4222 18.2929C16.9631 18.5885 17.5613 18.7643 18.1761 18.8084C18.791 18.8525 19.4081 18.7638 19.9856 18.5483C20.5632 18.3329 21.0877 17.9958 21.5234 17.5598L24.4923 14.5909C25.27 13.7792 25.6988 12.6951 25.6867 11.571C25.6746 10.4469 25.2226 9.37229 24.4276 8.57747C23.6327 7.78265 22.5579 7.3309 21.4338 7.31906C20.3097 7.30722 19.2257 7.73622 18.4142 8.51411L16.7132 10.2046C16.6524 10.2671 16.5799 10.3169 16.4997 10.351C16.4196 10.3851 16.3334 10.403 16.2463 10.4035C16.1592 10.404 16.0728 10.3871 15.9923 10.3539C15.9117 10.3207 15.8386 10.2718 15.7772 10.21C15.7157 10.1482 15.6672 10.0748 15.6345 9.99407C15.6017 9.91334 15.5853 9.82689 15.5863 9.73977C15.5873 9.65265 15.6056 9.5666 15.6403 9.48664C15.6749 9.40668 15.725 9.33441 15.7879 9.27404L17.498 7.57305ZM12.5499 13.2168C13.6863 12.7928 14.9294 12.7484 16.0931 13.0903C17.2568 13.4322 18.2784 14.142 19.0048 15.1133C19.1092 15.2526 19.154 15.4276 19.1294 15.5999C19.1048 15.7722 19.0128 15.9276 18.8735 16.0321C18.7343 16.1365 18.5593 16.1813 18.387 16.1567C18.2147 16.1321 18.0592 16.0401 17.9548 15.9008C17.5854 15.4073 17.1142 14.999 16.5731 14.7035C16.0321 14.408 15.4339 14.2323 14.819 14.1882C14.2041 14.1442 13.5869 14.2328 13.0093 14.4481C12.4317 14.6634 11.9071 15.0004 11.4711 15.4362L8.50483 18.4051C7.7331 19.2178 7.30932 20.2998 7.32381 21.4205C7.33831 22.5411 7.78993 23.6118 8.58243 24.4043C9.37493 25.1968 10.4456 25.6484 11.5663 25.6629C12.6869 25.6774 13.7689 25.2536 14.5817 24.4819L16.2735 22.7927C16.3972 22.6732 16.563 22.607 16.7351 22.6085C16.9071 22.61 17.0717 22.679 17.1934 22.8007C17.3151 22.9224 17.3841 23.087 17.3856 23.259C17.3871 23.4311 17.3209 23.5969 17.2014 23.7206L15.4978 25.4229C14.4401 26.4476 13.0219 27.0153 11.5492 27.0036C10.0766 26.9919 8.66764 26.4017 7.62631 25.3604C6.58497 24.3191 5.99479 22.9101 5.98309 21.4375C5.97139 19.9649 6.53912 18.5467 7.56378 17.4889L7.57165 17.4811L10.5444 14.5083C11.1137 13.9396 11.7979 13.4993 12.5512 13.2168" fill="black"/>
</svg>
