<svg width="28" height="28" viewBox="0 0 28 28" fill="none" xmlns="http://www.w3.org/2000/svg">
<path d="M9.91675 7.58333C9.91675 7.42862 9.97821 7.28025 10.0876 7.17085C10.197 7.06146 10.3454 7 10.5001 7H17.5001C17.6548 7 17.8032 7.06146 17.9126 7.17085C18.022 7.28025 18.0834 7.42862 18.0834 7.58333C18.0834 7.73804 18.022 7.88642 17.9126 7.99581C17.8032 8.10521 17.6548 8.16667 17.5001 8.16667H10.5001C10.3454 8.16667 10.197 8.10521 10.0876 7.99581C9.97821 7.88642 9.91675 7.73804 9.91675 7.58333ZM9.33341 14C9.024 14 8.72725 14.1229 8.50846 14.3417C8.28966 14.5605 8.16675 14.8572 8.16675 15.1667C8.16675 15.4761 8.28966 15.7728 8.50846 15.9916C8.72725 16.2104 9.024 16.3333 9.33341 16.3333C9.64283 16.3333 9.93958 16.2104 10.1584 15.9916C10.3772 15.7728 10.5001 15.4761 10.5001 15.1667C10.5001 14.8572 10.3772 14.5605 10.1584 14.3417C9.93958 14.1229 9.64283 14 9.33341 14ZM18.6667 14C18.3573 14 18.0606 14.1229 17.8418 14.3417C17.623 14.5605 17.5001 14.8572 17.5001 15.1667C17.5001 15.4761 17.623 15.7728 17.8418 15.9916C18.0606 16.2104 18.3573 16.3333 18.6667 16.3333C18.9762 16.3333 19.2729 16.2104 19.4917 15.9916C19.7105 15.7728 19.8334 15.4761 19.8334 15.1667C19.8334 14.8572 19.7105 14.5605 19.4917 14.3417C19.2729 14.1229 18.9762 14 18.6667 14ZM12.8334 15.1667C12.8334 14.8572 12.9563 14.5605 13.1751 14.3417C13.3939 14.1229 13.6907 14 14.0001 14C14.3095 14 14.6062 14.1229 14.825 14.3417C15.0438 14.5605 15.1667 14.8572 15.1667 15.1667C15.1667 15.4761 15.0438 15.7728 14.825 15.9916C14.6062 16.2104 14.3095 16.3333 14.0001 16.3333C13.6907 16.3333 13.3939 16.2104 13.1751 15.9916C12.9563 15.7728 12.8334 15.4761 12.8334 15.1667ZM9.33341 18.6667C9.024 18.6667 8.72725 18.7896 8.50846 19.0084C8.28966 19.2272 8.16675 19.5239 8.16675 19.8333C8.16675 20.1428 8.28966 20.4395 8.50846 20.6583C8.72725 20.8771 9.024 21 9.33341 21C9.64283 21 9.93958 20.8771 10.1584 20.6583C10.3772 20.4395 10.5001 20.1428 10.5001 19.8333C10.5001 19.5239 10.3772 19.2272 10.1584 19.0084C9.93958 18.7896 9.64283 18.6667 9.33341 18.6667ZM12.8334 19.8333C12.8334 19.5239 12.9563 19.2272 13.1751 19.0084C13.3939 18.7896 13.6907 18.6667 14.0001 18.6667C14.3095 18.6667 14.6062 18.7896 14.825 19.0084C15.0438 19.2272 15.1667 19.5239 15.1667 19.8333C15.1667 20.1428 15.0438 20.4395 14.825 20.6583C14.6062 20.8771 14.3095 21 14.0001 21C13.6907 21 13.3939 20.8771 13.1751 20.6583C12.9563 20.4395 12.8334 20.1428 12.8334 19.8333Z" fill="black"/>
<path d="M15.8934 3.5H12.1064C10.8231 3.5 9.82209 3.5 9.02059 3.56533C8.20625 3.63183 7.54475 3.7695 6.94975 4.07167C5.96164 4.57505 5.1583 5.37839 4.65492 6.3665C4.35159 6.9615 4.21509 7.623 4.14859 8.43733C4.08325 9.24 4.08325 10.2387 4.08325 11.5232V16.4768C4.08325 17.7602 4.08325 18.7612 4.14859 19.5627C4.21509 20.377 4.35275 21.0385 4.65492 21.6335C5.1583 22.6216 5.96164 23.425 6.94975 23.9283C7.54475 24.2317 8.20625 24.3682 9.02059 24.4347C9.82325 24.5 10.8219 24.5 12.1064 24.5H15.8934C17.1768 24.5 18.1778 24.5 18.9793 24.4347C19.7936 24.3682 20.4551 24.2305 21.0501 23.9283C22.0382 23.425 22.8415 22.6216 23.3449 21.6335C23.6483 21.0385 23.7848 20.377 23.8513 19.5627C23.9166 18.7612 23.9166 17.7613 23.9166 16.4768V11.5232C23.9166 10.2398 23.9166 9.23883 23.8513 8.43733C23.7848 7.623 23.6471 6.9615 23.3449 6.3665C22.8415 5.37839 22.0382 4.57505 21.0501 4.07167C20.4551 3.76833 19.7936 3.63183 18.9793 3.56533C18.1766 3.5 17.1779 3.5 15.8934 3.5ZM7.47825 5.11117C7.88192 4.90583 8.37192 4.78917 9.11509 4.7285C9.86409 4.66667 10.8173 4.66667 12.1333 4.66667H15.8666C17.1826 4.66667 18.1358 4.66667 18.8836 4.7285C19.6268 4.78917 20.1168 4.90583 20.5204 5.11117C21.289 5.5027 21.9139 6.12757 22.3054 6.89617C22.5108 7.29983 22.6274 7.78983 22.6881 8.533C22.7324 9.06617 22.7453 9.702 22.7488 10.5H5.24992C5.25459 9.702 5.26625 9.065 5.31059 8.533C5.37125 7.78983 5.48792 7.29983 5.69325 6.89617C6.08478 6.12757 6.70965 5.5027 7.47825 5.11117ZM5.24992 11.6667H22.7499V16.45C22.7499 17.766 22.7499 18.7192 22.6881 19.467C22.6274 20.2102 22.5108 20.7002 22.3054 21.1038C21.9139 21.8724 21.289 22.4973 20.5204 22.8888C20.1168 23.0942 19.6268 23.2108 18.8848 23.2715C18.1358 23.3333 17.1826 23.3333 15.8666 23.3333H12.1333C10.8173 23.3333 9.86409 23.3333 9.11625 23.2715C8.37309 23.2108 7.88309 23.0942 7.47942 22.8888C6.71082 22.4973 6.08595 21.8724 5.69442 21.1038C5.48909 20.7002 5.37242 20.2102 5.31175 19.4682C5.24992 18.7192 5.24992 17.766 5.24992 16.45V11.6667Z" fill="black"/>
</svg>
