<svg width="24" height="24" viewBox="0 0 24 24" fill="none" xmlns="http://www.w3.org/2000/svg">
<path d="M4.06456 20.6527H20.2363C22.0448 20.6527 23.0893 19.6083 23.0893 17.5391V6.44942C23.0893 4.39013 22.035 3.3457 19.935 3.3457H3.7637C1.96585 3.3457 0.911133 4.38027 0.911133 6.44942V17.5387C0.911133 19.6177 1.9757 20.6523 4.06542 20.6523M10.8056 12.5064L3.22113 5.02356C3.44185 4.93313 3.70285 4.88299 4.01442 4.88299H19.9958C20.307 4.88299 20.5783 4.93313 20.8093 5.0437L13.2356 12.5068C12.8036 12.9384 12.4217 13.1296 12.0201 13.1296C11.6181 13.1296 11.2367 12.9384 10.8047 12.5068M2.44713 17.5391V6.34913L8.22256 12.0148L2.45742 17.7093C2.44756 17.6591 2.44756 17.5987 2.44756 17.5387M21.5524 6.45928V17.6793L15.8168 12.0144L21.5528 6.37956L21.5524 6.45928ZM4.01442 19.1163C3.72299 19.1163 3.48213 19.076 3.27128 18.9856L9.2777 13.049L9.93085 13.6918C10.6337 14.3848 11.3066 14.6763 12.0201 14.6763C12.723 14.6763 13.4061 14.3848 14.1094 13.6918L14.7621 13.049L20.7591 18.9753C20.5478 19.076 20.2868 19.1158 19.9954 19.1158L4.01442 19.1163Z" fill="#0C0D11"/>
</svg>
