<svg width="24" height="24" viewBox="0 0 24 24" fill="none" xmlns="http://www.w3.org/2000/svg">
<path d="M7.82888 16.1715C5.67828 14.0167 4.02439 11.4182 2.98288 8.55751C2.40988 6.99351 2.93488 5.27551 4.11288 4.09751L4.84188 3.36951C5.03786 3.17313 5.27066 3.01733 5.52693 2.91102C5.78321 2.80472 6.05793 2.75 6.33538 2.75C6.61282 2.75 6.88755 2.80472 7.14382 2.91102C7.4001 3.01733 7.63289 3.17313 7.82888 3.36951L9.53588 5.07651C9.73226 5.2725 9.88806 5.50529 9.99437 5.76157C10.1007 6.01784 10.1554 6.29256 10.1554 6.57001C10.1554 6.84746 10.1007 7.12218 9.99437 7.37846C9.88806 7.63473 9.73226 7.86752 9.53588 8.06351L9.11588 8.48351C8.94776 8.65159 8.8144 8.85114 8.72342 9.07076C8.63243 9.29039 8.5856 9.52579 8.5856 9.76351C8.5856 10.0012 8.63243 10.2366 8.72342 10.4563C8.8144 10.6759 8.94776 10.8754 9.11588 11.0435L12.9559 14.8845C13.124 15.0526 13.3235 15.186 13.5431 15.277C13.7628 15.368 13.9982 15.4148 14.2359 15.4148C14.4736 15.4148 14.709 15.368 14.9286 15.277C15.1482 15.186 15.3478 15.0526 15.5159 14.8845L15.9369 14.4645C16.1329 14.2681 16.3657 14.1123 16.6219 14.006C16.8782 13.8997 17.1529 13.845 17.4304 13.845C17.7078 13.845 17.9825 13.8997 18.2388 14.006C18.4951 14.1123 18.7279 14.2681 18.9239 14.4645L20.6309 16.1715C20.8273 16.3675 20.9831 16.6003 21.0894 16.8566C21.1957 17.1128 21.2504 17.3876 21.2504 17.665C21.2504 17.9425 21.1957 18.2172 21.0894 18.4735C20.9831 18.7297 20.8273 18.9625 20.6309 19.1585L19.9029 19.8865C18.7249 21.0655 17.0069 21.5905 15.4429 21.0175C12.5822 19.976 9.98364 18.3221 7.82888 16.1715Z" stroke="black" stroke-width="1.5" stroke-linejoin="round"/>
</svg>
