<svg width="24" height="24" viewBox="0 0 24 24" fill="none" xmlns="http://www.w3.org/2000/svg">
<g clip-path="url(#clip0_235_1137)">
<path d="M23.9998 12.7498C23.9998 12.9488 23.9207 13.1395 23.7801 13.2802C23.6394 13.4208 23.4487 13.4998 23.2498 13.4998H21.7498V14.9998C21.7498 15.1988 21.6707 15.3895 21.5301 15.5302C21.3894 15.6708 21.1987 15.7498 20.9998 15.7498C20.8008 15.7498 20.6101 15.6708 20.4694 15.5302C20.3288 15.3895 20.2498 15.1988 20.2498 14.9998V13.4998H18.7498C18.5508 13.4998 18.3601 13.4208 18.2194 13.2802C18.0788 13.1395 17.9998 12.9488 17.9998 12.7498C17.9998 12.5509 18.0788 12.3602 18.2194 12.2195C18.3601 12.0789 18.5508 11.9998 18.7498 11.9998H20.2498V10.4998C20.2498 10.3009 20.3288 10.1102 20.4694 9.96951C20.6101 9.82886 20.8008 9.74984 20.9998 9.74984C21.1987 9.74984 21.3894 9.82886 21.5301 9.96951C21.6707 10.1102 21.7498 10.3009 21.7498 10.4998V11.9998H23.2498C23.4487 11.9998 23.6394 12.0789 23.7801 12.2195C23.9207 12.3602 23.9998 12.5509 23.9998 12.7498ZM18.5744 18.267C18.7025 18.4194 18.7648 18.6165 18.7475 18.8148C18.7303 19.0131 18.635 19.1965 18.4826 19.3245C18.3302 19.4526 18.1331 19.5148 17.9348 19.4976C17.7365 19.4804 17.5531 19.3851 17.4251 19.2327C15.5388 16.9864 12.9457 15.7498 10.1248 15.7498C7.30382 15.7498 4.71069 16.9864 2.82444 19.2327C2.69639 19.3849 2.51309 19.4801 2.31486 19.4973C2.11663 19.5144 1.91971 19.4521 1.76741 19.3241C1.61512 19.196 1.51993 19.0127 1.50279 18.8145C1.48565 18.6162 1.54796 18.4193 1.67601 18.267C3.07663 16.6002 4.81851 15.4161 6.75445 14.7823C5.57873 14.0501 4.6735 12.9548 4.1757 11.6622C3.6779 10.3697 3.61462 8.95013 3.99543 7.61839C4.37624 6.28666 5.18043 5.11518 6.28632 4.2812C7.39222 3.44721 8.73965 2.99609 10.1248 2.99609C11.5099 2.99609 12.8573 3.44721 13.9632 4.2812C15.0691 5.11518 15.8733 6.28666 16.2541 7.61839C16.6349 8.95013 16.5716 10.3697 16.0738 11.6622C15.576 12.9548 14.6708 14.0501 13.4951 14.7823C15.431 15.4161 17.1729 16.6002 18.5744 18.267ZM10.1248 14.2498C11.0889 14.2498 12.0315 13.9639 12.8332 13.4283C13.6349 12.8926 14.2597 12.1312 14.6287 11.2404C14.9976 10.3496 15.0942 9.36943 14.9061 8.42378C14.718 7.47812 14.2537 6.60948 13.5719 5.9277C12.8901 5.24592 12.0215 4.78162 11.0758 4.59351C10.1302 4.40541 9.14997 4.50195 8.25918 4.87093C7.36839 5.23991 6.60702 5.86475 6.07134 6.66644C5.53567 7.46813 5.24976 8.41066 5.24976 9.37484C5.25125 10.6673 5.76534 11.9064 6.67926 12.8203C7.59317 13.7343 8.83229 14.2484 10.1248 14.2498Z" fill="#0C0D11"/>
</g>
<defs>
<clipPath id="clip0_235_1137">
<rect width="24" height="24" fill="white"/>
</clipPath>
</defs>
</svg>
