<svg width="24" height="24" viewBox="0 0 24 24" fill="none" xmlns="http://www.w3.org/2000/svg">
<path d="M22 22H2" stroke="#0C0D11" stroke-width="1.5" stroke-linecap="round"/>
<path d="M21 22V14.5C21 14.1022 20.842 13.7206 20.5607 13.4393C20.2794 13.158 19.8978 13 19.5 13H16.5C16.1022 13 15.7206 13.158 15.4393 13.4393C15.158 13.7206 15 14.1022 15 14.5V22V5C15 3.586 15 2.879 14.56 2.44C14.122 2 13.415 2 12 2C10.585 2 9.879 2 9.44 2.44C9 2.878 9 3.585 9 5V22V9.5C9 9.10218 8.84196 8.72064 8.56066 8.43934C8.27936 8.15804 7.89782 8 7.5 8H4.5C4.10218 8 3.72064 8.15804 3.43934 8.43934C3.15804 8.72064 3 9.10218 3 9.5V22" stroke="#0C0D11" stroke-width="1.5"/>
</svg>
