<svg width="24" height="25" viewBox="0 0 24 25" fill="none" xmlns="http://www.w3.org/2000/svg">
<path d="M7.99809 16.5H11.9981M7.99809 11.5H15.9981M7.50009 4C5.94409 4.047 5.01709 4.22 4.37509 4.862C3.49609 5.742 3.49609 7.157 3.49609 9.988V16.494C3.49609 19.326 3.49609 20.741 4.37509 21.621C5.25309 22.5 6.66809 22.5 9.49609 22.5H14.4961C17.3251 22.5 18.7391 22.5 19.6171 21.62C20.4971 20.741 20.4971 19.326 20.4971 16.494V9.988C20.4971 7.158 20.4971 5.742 19.6171 4.862C18.9761 4.22 18.0481 4.047 16.4921 4" stroke="#0C0D11" stroke-width="1.5" stroke-linecap="round" stroke-linejoin="round"/>
<path d="M7.49609 4.25C7.49609 3.284 8.28009 2.5 9.24609 2.5H14.7461C15.2102 2.5 15.6553 2.68437 15.9835 3.01256C16.3117 3.34075 16.4961 3.78587 16.4961 4.25C16.4961 4.71413 16.3117 5.15925 15.9835 5.48744C15.6553 5.81563 15.2102 6 14.7461 6H9.24609C8.78197 6 8.33685 5.81563 8.00866 5.48744C7.68047 5.15925 7.49609 4.71413 7.49609 4.25Z" stroke="#0C0D11" stroke-width="1.5" stroke-linecap="round" stroke-linejoin="round"/>
</svg>
