<svg width="24" height="24" viewBox="0 0 24 24" fill="none" xmlns="http://www.w3.org/2000/svg">
<path d="M21.6489 19.8756C20.2211 17.4072 18.0208 15.6372 15.4529 14.7981C16.7231 14.042 17.7099 12.8898 18.2619 11.5185C18.8139 10.1473 18.9004 8.63272 18.5083 7.20749C18.1162 5.78226 17.2671 4.52515 16.0914 3.62921C14.9156 2.73327 13.4783 2.24805 12.0001 2.24805C10.5219 2.24805 9.08463 2.73327 7.90891 3.62921C6.73318 4.52515 5.88406 5.78226 5.49195 7.20749C5.09984 8.63272 5.18641 10.1473 5.73837 11.5185C6.29033 12.8898 7.27716 14.042 8.54732 14.7981C5.97951 15.6362 3.77919 17.4062 2.35138 19.8756C2.29902 19.961 2.26429 20.056 2.24924 20.155C2.23419 20.254 2.23912 20.355 2.26375 20.4521C2.28837 20.5492 2.33219 20.6404 2.39262 20.7202C2.45305 20.8001 2.52887 20.867 2.61559 20.9171C2.70232 20.9672 2.7982 20.9995 2.89758 21.0119C2.99695 21.0243 3.09782 21.0167 3.19421 20.9896C3.29061 20.9624 3.38059 20.9162 3.45884 20.8537C3.53709 20.7912 3.60203 20.7136 3.64982 20.6256C5.41607 17.5731 8.53794 15.7506 12.0001 15.7506C15.4623 15.7506 18.5842 17.5731 20.3504 20.6256C20.3982 20.7136 20.4632 20.7912 20.5414 20.8537C20.6197 20.9162 20.7097 20.9624 20.806 20.9896C20.9024 21.0167 21.0033 21.0243 21.1027 21.0119C21.2021 20.9995 21.2979 20.9672 21.3847 20.9171C21.4714 20.867 21.5472 20.8001 21.6076 20.7202C21.6681 20.6404 21.7119 20.5492 21.7365 20.4521C21.7611 20.355 21.7661 20.254 21.751 20.155C21.736 20.056 21.7012 19.961 21.6489 19.8756ZM6.75013 9.0006C6.75013 7.96225 7.05804 6.94721 7.63492 6.08385C8.21179 5.2205 9.03173 4.54759 9.99104 4.15023C10.9504 3.75287 12.006 3.6489 13.0244 3.85147C14.0428 4.05405 14.9782 4.55406 15.7124 5.28829C16.4467 6.02251 16.9467 6.95797 17.1493 7.97637C17.3518 8.99477 17.2479 10.0504 16.8505 11.0097C16.4531 11.969 15.7802 12.7889 14.9169 13.3658C14.0535 13.9427 13.0385 14.2506 12.0001 14.2506C10.6082 14.2491 9.27371 13.6955 8.28947 12.7113C7.30522 11.727 6.75162 10.3925 6.75013 9.0006Z" fill="#0C0D11"/>
</svg>
