<svg width="20" height="20" viewBox="0 0 20 20" fill="none" xmlns="http://www.w3.org/2000/svg">
<path d="M3.38713 17.2116H16.8636C18.3707 17.2116 19.2411 16.3412 19.2411 14.6169V5.37549C19.2411 3.65942 18.3625 2.78906 16.6125 2.78906H3.13642C1.63821 2.78906 0.759277 3.65121 0.759277 5.37549V14.6166C0.759277 16.3491 1.64642 17.2112 3.38785 17.2112M9.00463 10.423L2.68428 4.18728C2.86821 4.11192 3.08571 4.07013 3.34535 4.07013H16.6632C16.9225 4.07013 17.1486 4.11192 17.3411 4.20406L11.0296 10.4233C10.6696 10.783 10.3514 10.9423 10.0168 10.9423C9.68178 10.9423 9.36392 10.783 9.00392 10.4233M2.03928 14.6169V5.29192L6.85213 10.0133L2.04785 14.7587C2.03963 14.7169 2.03963 14.6666 2.03963 14.6166M17.9603 5.38371V14.7337L13.1807 10.013L17.9607 5.31728L17.9603 5.38371ZM3.34535 15.9312C3.10249 15.9312 2.90178 15.8976 2.72606 15.8223L7.73142 10.8751L8.27571 11.4108C8.86142 11.9883 9.42213 12.2312 10.0168 12.2312C10.6025 12.2312 11.1718 11.9883 11.7578 11.4108L12.3018 10.8751L17.2993 15.8137C17.1232 15.8976 16.9057 15.9309 16.6628 15.9309L3.34535 15.9312Z" fill="#0C0D11"/>
</svg>
