<svg width="21" height="21" viewBox="0 0 21 21" fill="none" xmlns="http://www.w3.org/2000/svg">
<path d="M18.839 12.661L17.0625 10.8846V8.53125C17.0605 6.90496 16.4555 5.33718 15.3645 4.13108C14.2736 2.92498 12.7742 2.16624 11.1562 2.00156V0.65625H9.84375V2.00156C8.22581 2.16624 6.72641 2.92498 5.63546 4.13108C4.54452 5.33718 3.93954 6.90496 3.9375 8.53125V10.8846L2.16103 12.661C2.03795 12.7841 1.96879 12.951 1.96875 13.125V15.0937C1.96875 15.2678 2.03789 15.4347 2.16096 15.5578C2.28403 15.6809 2.45095 15.75 2.625 15.75H7.21875V16.2599C7.20418 17.0925 7.49753 17.9012 8.04252 18.5309C8.58751 19.1605 9.34577 19.5668 10.1719 19.6717C10.6281 19.717 11.0887 19.6662 11.5241 19.5228C11.9596 19.3793 12.3601 19.1463 12.7001 18.8387C13.0401 18.5311 13.3119 18.1558 13.4981 17.7369C13.6843 17.318 13.7807 16.8647 13.7812 16.4062V15.75H18.375C18.549 15.75 18.716 15.6809 18.839 15.5578C18.9621 15.4347 19.0312 15.2678 19.0312 15.0937V13.125C19.0312 12.951 18.962 12.7841 18.839 12.661ZM12.4688 16.4062C12.4688 16.9284 12.2613 17.4292 11.8921 17.7984C11.5229 18.1676 11.0221 18.375 10.5 18.375C9.97785 18.375 9.4771 18.1676 9.10788 17.7984C8.73867 17.4292 8.53125 16.9284 8.53125 16.4062V15.75H12.4688V16.4062ZM17.7188 14.4375H3.28125V13.3967L5.05772 11.6202C5.1808 11.4972 5.24996 11.3303 5.25 11.1562V8.53125C5.25 7.13886 5.80312 5.8035 6.78769 4.81894C7.77225 3.83437 9.10761 3.28125 10.5 3.28125C11.8924 3.28125 13.2277 3.83437 14.2123 4.81894C15.1969 5.8035 15.75 7.13886 15.75 8.53125V11.1562C15.75 11.3303 15.8192 11.4972 15.9423 11.6202L17.7188 13.3967V14.4375Z" fill="#0C0D11"/>
</svg>
