<svg width="32" height="32" viewBox="0 0 32 32" fill="none" xmlns="http://www.w3.org/2000/svg">
<path opacity="0.32" fill-rule="evenodd" clip-rule="evenodd" d="M2.83223 10.666H29.1678C29.2624 12.2675 29.3334 14.4349 29.3334 17.3327C29.3334 21.9783 29.151 24.7467 28.9817 26.3155C28.8563 27.4778 28.0691 28.374 26.9206 28.5916C25.1327 28.9304 21.7904 29.3327 16.0001 29.3327C10.2097 29.3327 6.86748 28.9304 5.07964 28.5916C3.9311 28.374 3.14388 27.4778 3.01847 26.3155C2.84918 24.7467 2.66675 21.9783 2.66675 17.3327C2.66675 14.4349 2.73773 12.2675 2.83223 10.666ZM8.66675 16.908C8.66675 16.1068 9.24428 15.4769 10.045 15.4484C11.0849 15.4114 12.8893 15.3693 16.0001 15.3419C19.3426 15.3124 21.1768 15.3589 22.175 15.4126C22.874 15.4502 23.3334 15.9922 23.3334 16.6922V17.2136C23.3334 17.9628 22.821 18.5451 22.0726 18.578C21.0531 18.6226 19.2314 18.666 16.0001 18.666C12.7688 18.666 10.9471 18.6226 9.92762 18.578C9.17922 18.5451 8.66675 17.9628 8.66675 17.2136V16.908ZM8.66675 22.7848C8.66675 22.0361 9.17928 21.4384 9.92695 21.3998C10.6304 21.3634 11.7061 21.3328 13.3334 21.3328C14.9608 21.3328 16.0364 21.3634 16.7399 21.3998C17.4876 21.4384 18.0001 22.0361 18.0001 22.7848V23.2141C18.0001 23.9628 17.4876 24.5604 16.7399 24.5991C16.0364 24.6354 14.9608 24.6661 13.3334 24.6661C11.7061 24.6661 10.6304 24.6354 9.92695 24.5991C9.17928 24.5604 8.66675 23.9628 8.66675 23.2141V22.7848Z" fill="black"/>
<path d="M23.8867 2.70769C24.3035 2.74205 24.5899 3.04732 24.6181 3.46453C24.6441 3.84782 24.6667 4.43825 24.6667 5.33268C24.6667 5.47636 24.6661 5.6122 24.665 5.7406C25.5999 5.84778 26.3415 5.9641 26.9203 6.07376C28.0689 6.29137 28.8561 7.18755 28.9815 8.34982C29.0452 8.94001 29.1107 9.70008 29.1677 10.666H2.83203C2.88902 9.70008 2.95458 8.94001 3.01827 8.34982C3.14368 7.18755 3.9309 6.29138 5.07944 6.07376C5.65826 5.96409 6.4 5.84776 7.335 5.74057C7.33393 5.61218 7.33333 5.47636 7.33333 5.33268C7.33333 4.43825 7.35586 3.84782 7.38186 3.46453C7.41013 3.04732 7.69653 2.74205 8.11326 2.70769C8.39686 2.68431 8.79173 2.66602 9.33333 2.66602C9.87493 2.66602 10.2698 2.68431 10.5534 2.70769C10.9701 2.74205 11.2565 3.04732 11.2848 3.46453C11.3108 3.84782 11.3333 4.43825 11.3333 5.33268C11.3333 5.36654 11.3333 5.39997 11.3333 5.43296C12.6753 5.3706 14.2222 5.33268 15.9999 5.33268C17.7777 5.33268 19.3247 5.37061 20.6667 5.43298L20.6667 5.33268C20.6667 4.43825 20.6892 3.84782 20.7152 3.46453C20.7435 3.04732 21.0299 2.74205 21.4466 2.70769C21.7302 2.68431 22.1251 2.66602 22.6667 2.66602C23.2083 2.66602 23.6031 2.68431 23.8867 2.70769Z" fill="white"/>
<path fill-rule="evenodd" clip-rule="evenodd" d="M10.0449 15.4484C9.2442 15.4769 8.66666 16.1067 8.66666 16.908V17.2136C8.66666 17.9627 9.17913 18.5451 9.92753 18.5779C10.947 18.6226 12.7687 18.666 16 18.666C19.2313 18.666 21.053 18.6226 22.0725 18.5779C22.8209 18.5451 23.3333 17.9627 23.3333 17.2136V16.6921C23.3333 15.9921 22.8739 15.4501 22.1749 15.4125C21.1767 15.3589 19.3425 15.3123 16 15.3419C12.8892 15.3693 11.0848 15.4113 10.0449 15.4484ZM9.92686 21.3997C9.1792 21.4384 8.66666 22.0361 8.66666 22.7847V23.2141C8.66666 23.9627 9.1792 24.5604 9.92686 24.5991C10.6303 24.6354 11.706 24.6661 13.3333 24.6661C14.9607 24.6661 16.0363 24.6354 16.7398 24.5991C17.4875 24.5604 18 23.9627 18 23.2141V22.7847C18 22.0361 17.4875 21.4384 16.7398 21.3997C16.0363 21.3634 14.9607 21.3327 13.3333 21.3327C11.706 21.3327 10.6303 21.3634 9.92686 21.3997Z" fill="white"/>
</svg>
