<svg width="32" height="32" viewBox="0 0 32 32" fill="none" xmlns="http://www.w3.org/2000/svg">
<path opacity="0.5" d="M21.8866 23.9658C21.6079 24.8195 21.1181 25.5891 20.4626 26.2031C19.488 27.1164 17.984 27.5191 14.9773 28.3244C11.9706 29.1298 10.4666 29.5338 9.16663 29.2298C8.13944 28.9902 7.20634 28.4515 6.48529 27.6818C5.57196 26.7071 5.16796 25.2031 4.36263 22.1964L3.67329 19.6204C2.86663 16.6138 2.46396 15.1098 2.76663 13.8098C3.00651 12.7824 3.54569 11.8493 4.31596 11.1284C5.29063 10.2151 6.79463 9.81242 9.80129 9.00575C10.3693 8.85375 10.8853 8.71508 11.3546 8.59375L11.0293 9.80175L10.34 12.3777C9.53329 15.3844 9.13063 16.8871 9.43329 18.1884C9.67318 19.2158 10.2124 20.1489 10.9826 20.8698C11.9573 21.7831 13.4613 22.1858 16.468 22.9924C19.1773 23.7178 20.6666 24.1164 21.8866 23.9658Z" fill="black"/>
<path fill-rule="evenodd" clip-rule="evenodd" d="M27.7732 14.286L27.0826 16.862C26.2759 19.8687 25.8732 21.3727 24.9599 22.3473C24.2392 23.1169 23.3066 23.6556 22.2799 23.8953C22.1506 23.926 22.0199 23.9487 21.8866 23.9647C20.6666 24.1153 19.1772 23.7167 16.4679 22.9913C13.4612 22.1847 11.9572 21.782 10.9826 20.8687C10.2128 20.1476 9.67409 19.2145 9.43458 18.1873C9.13058 16.886 9.53324 15.3833 10.3399 12.3767L11.0292 9.80067L11.3546 8.59401C11.9612 6.37267 12.3692 5.15001 13.1519 4.31401C13.8728 3.54494 14.8054 3.00673 15.8319 2.76734C17.1332 2.46334 18.6372 2.86601 21.6452 3.67267C24.6506 4.47801 26.1546 4.88067 27.1292 5.79267C27.8992 6.51408 28.438 7.44768 28.6772 8.47534C28.9812 9.77667 28.5786 11.2793 27.7732 14.286ZM14.7359 13.0727C14.7699 12.9458 14.8286 12.8269 14.9086 12.7227C14.9886 12.6185 15.0884 12.5311 15.2022 12.4655C15.316 12.3999 15.4416 12.3573 15.5718 12.3402C15.7021 12.3232 15.8344 12.3319 15.9612 12.366L22.4012 14.0927C22.5314 14.1235 22.6541 14.1802 22.762 14.2594C22.8699 14.3385 22.9608 14.4385 23.0294 14.5535C23.0979 14.6684 23.1427 14.7959 23.1611 14.9285C23.1794 15.061 23.171 15.1959 23.1363 15.3251C23.1016 15.4544 23.0413 15.5753 22.9589 15.6808C22.8766 15.7863 22.774 15.8742 22.6571 15.9393C22.5402 16.0045 22.4114 16.0454 22.2783 16.0599C22.1453 16.0743 22.0107 16.0619 21.8826 16.0233L15.4426 14.298C15.1866 14.2293 14.9685 14.0617 14.836 13.8322C14.7035 13.6027 14.6675 13.3287 14.7359 13.0727ZM13.7012 16.9367C13.77 16.6807 13.9375 16.4626 14.167 16.3301C14.3965 16.1976 14.6692 16.1616 14.9252 16.23L18.7892 17.266C18.9201 17.2962 19.0435 17.3524 19.1521 17.4313C19.2607 17.5103 19.3524 17.6102 19.4215 17.7253C19.4907 17.8404 19.5359 17.9682 19.5546 18.1012C19.5733 18.2342 19.565 18.3695 19.5303 18.4992C19.4955 18.6289 19.435 18.7503 19.3524 18.8561C19.2697 18.9619 19.1666 19.0499 19.0491 19.115C18.9317 19.1801 18.8024 19.2209 18.6688 19.2349C18.5353 19.2489 18.4003 19.2359 18.2719 19.1967L14.4079 18.162C14.281 18.128 14.1621 18.0693 14.0579 17.9893C13.9537 17.9093 13.8664 17.8095 13.8007 17.6957C13.7351 17.5819 13.6925 17.4563 13.6755 17.3261C13.6584 17.1959 13.6672 17.0635 13.7012 16.9367Z" fill="white"/>
</svg>
