<svg width="32" height="32" viewBox="0 0 32 32" fill="none" xmlns="http://www.w3.org/2000/svg">
<path d="M7.66675 9.33398C7.40153 9.33398 7.14718 9.43934 6.95964 9.62688C6.7721 9.81441 6.66675 10.0688 6.66675 10.334C6.66675 10.5992 6.7721 10.8536 6.95964 11.0411C7.14718 11.2286 7.40153 11.334 7.66675 11.334H13.0001C13.2653 11.334 13.5197 11.2286 13.7072 11.0411C13.8947 10.8536 14.0001 10.5992 14.0001 10.334C14.0001 10.0688 13.8947 9.81441 13.7072 9.62688C13.5197 9.43934 13.2653 9.33398 13.0001 9.33398H7.66675Z" fill="white"/>
<path fill-rule="evenodd" clip-rule="evenodd" d="M28.2507 10.6713C28.1681 10.666 28.0774 10.666 27.9841 10.666H24.2867C21.2587 10.666 18.6667 12.9807 18.6667 15.9993C18.6667 19.018 21.2587 21.3327 24.2867 21.3327H27.9841C28.0774 21.3327 28.1681 21.3327 28.2507 21.3273C29.4814 21.2527 30.5694 20.318 30.6614 19.0113C30.6667 18.926 30.6667 18.834 30.6667 18.7487V13.25C30.6667 13.1647 30.6667 13.0727 30.6614 12.9873C30.5694 11.6807 29.4814 10.7473 28.2507 10.6713ZM23.9614 17.422C24.7401 17.422 25.3721 16.7847 25.3721 15.9993C25.3721 15.2127 24.7401 14.5767 23.9614 14.5767C23.1814 14.5767 22.5481 15.214 22.5481 15.9993C22.5481 16.786 23.1814 17.422 23.9614 17.422Z" fill="white"/>
<path opacity="0.5" d="M28.1868 10.6693C28.1868 9.09467 28.1281 7.40533 27.1228 6.196C27.0245 6.07753 26.9208 5.96363 26.8121 5.85467C25.8134 4.85733 24.5481 4.41467 22.9854 4.204C21.4654 4 19.5254 4 17.0748 4H14.2588C11.8081 4 9.86675 4 8.34675 4.204C6.78408 4.41467 5.51875 4.85733 4.52008 5.85467C3.52275 6.85333 3.08008 8.11867 2.86941 9.68133C2.66675 11.2013 2.66675 13.1413 2.66675 15.592V15.7413C2.66675 18.192 2.66675 20.1333 2.87075 21.652C3.08141 23.2147 3.52408 24.48 4.52142 25.4787C5.52008 26.476 6.78542 26.9187 8.34808 27.1293C9.86808 27.3333 11.8081 27.3333 14.2588 27.3333H17.0748C19.5254 27.3333 21.4668 27.3333 22.9854 27.1293C24.5481 26.9187 25.8134 26.476 26.8121 25.4787C27.0777 25.2122 27.313 24.9171 27.5134 24.5987C28.1134 23.6387 28.1854 22.4627 28.1854 21.332L27.9854 21.3333H24.2868C21.2588 21.3333 18.6668 19.0187 18.6668 16C18.6668 12.9813 21.2588 10.6667 24.2868 10.6667H27.9841C28.0534 10.6667 28.1228 10.6667 28.1868 10.6693Z" fill="black"/>
</svg>
