<svg width="32" height="32" viewBox="0 0 32 32" fill="none" xmlns="http://www.w3.org/2000/svg">
<path opacity="0.32" d="M28.2412 22.6271C27.8629 23.5006 26.9634 24 26.0116 24H19.754C19.795 23.886 19.8314 23.7692 19.8628 23.6498C20.228 22.2632 19.8434 20.852 18.9619 19.8617C19.2873 17.2121 19.4904 14.4977 19.6144 12.3535C19.676 11.2897 18.3727 10.9344 17.9033 11.887C16.9572 13.807 15.7992 16.2611 14.779 18.7213C13.529 19.1305 12.5025 20.1569 12.1374 21.5434C11.9153 22.3866 11.9705 23.2388 12.2461 24H5.98862C5.03672 24 4.13726 23.5006 3.75898 22.6271C3.05624 21.0043 2.66675 19.2143 2.66675 17.3333C2.66675 9.96953 8.63628 4 16.0001 4C23.3639 4 29.3334 9.96953 29.3334 17.3333C29.3334 19.2143 28.944 21.0043 28.2412 22.6271Z" fill="black"/>
<path d="M19.6143 12.3542C19.6759 11.2904 18.3726 10.9351 17.9032 11.8877C16.9571 13.8077 15.7991 16.2617 14.7789 18.722C13.5289 19.1311 12.5024 20.1575 12.1373 21.5441C11.5656 23.7148 12.8317 25.946 14.965 26.5277C17.0983 27.1093 19.2911 25.8211 19.8627 23.6504C20.2279 22.2639 19.8433 20.8527 18.9618 19.8624C19.2872 17.2128 19.4903 14.4983 19.6143 12.3542Z" fill="white"/>
</svg>
