<svg width="32" height="32" viewBox="0 0 32 32" fill="none" xmlns="http://www.w3.org/2000/svg">
<path opacity="0.32" d="M16.0001 29.3333C23.3639 29.3333 29.3334 27.244 29.3334 24.6667C29.3334 22.0893 23.3639 20 16.0001 20C8.63629 20 2.66675 22.0893 2.66675 24.6667C2.66675 27.244 8.63629 29.3333 16.0001 29.3333Z" fill="black"/>
<path d="M16 1.66602C16.2652 1.66602 16.5196 1.77137 16.7071 1.95891C16.8946 2.14645 17 2.4008 17 2.66602V4.04735L23.6773 7.38602L23.7493 7.42202C24.728 7.91135 25.5627 8.32868 26.144 8.73402C26.7333 9.14602 27.352 9.74202 27.352 10.666C27.352 11.59 26.7333 12.186 26.144 12.598C25.5627 13.0033 24.728 13.4207 23.7493 13.91L17 17.2833V23.9993C17 24.2646 16.8946 24.5189 16.7071 24.7065C16.5196 24.894 16.2652 24.9993 16 24.9993C15.7348 24.9993 15.4804 24.894 15.2929 24.7065C15.1054 24.5189 15 24.2646 15 23.9993V2.66602C15 2.4008 15.1054 2.14645 15.2929 1.95891C15.4804 1.77137 15.7348 1.66602 16 1.66602Z" fill="white"/>
</svg>
