<svg width="32" height="32" viewBox="0 0 32 32" fill="none" xmlns="http://www.w3.org/2000/svg">
<path opacity="0.5" d="M9.66 2.66602H22.34C23.8853 2.66602 24.6573 2.66602 25.2813 2.88335C25.8697 3.09187 26.402 3.43323 26.837 3.88093C27.272 4.32862 27.5979 4.87057 27.7893 5.46468C28 6.10735 28 6.90202 28 8.49268V27.1647C28 28.3087 26.6867 28.9167 25.856 28.1567C25.623 27.9413 25.3173 27.8218 25 27.8218C24.6827 27.8218 24.377 27.9413 24.144 28.1567L23.5 28.746C23.0917 29.1236 22.5561 29.3333 22 29.3333C21.4439 29.3333 20.9083 29.1236 20.5 28.746C20.0917 28.3685 19.5561 28.1588 19 28.1588C18.4439 28.1588 17.9083 28.3685 17.5 28.746C17.0917 29.1236 16.5561 29.3333 16 29.3333C15.4439 29.3333 14.9083 29.1236 14.5 28.746C14.0917 28.3685 13.5561 28.1588 13 28.1588C12.4439 28.1588 11.9083 28.3685 11.5 28.746C11.0917 29.1236 10.5561 29.3333 10 29.3333C9.44391 29.3333 8.90828 29.1236 8.5 28.746L7.856 28.1567C7.62295 27.9413 7.3173 27.8218 7 27.8218C6.6827 27.8218 6.37705 27.9413 6.144 28.1567C5.31333 28.9167 4 28.3087 4 27.1647V8.49268C4 6.90202 4 6.10602 4.21067 5.46602C4.61067 4.24868 5.53733 3.29402 6.71867 2.88335C7.34267 2.66602 8.11467 2.66602 9.66 2.66602Z" fill="#EFEFEF"/>
<path d="M9.33325 9C9.06804 9 8.81368 9.10536 8.62615 9.29289C8.43861 9.48043 8.33325 9.73478 8.33325 10C8.33325 10.2652 8.43861 10.5196 8.62615 10.7071C8.81368 10.8946 9.06804 11 9.33325 11H9.99992C10.2651 11 10.5195 10.8946 10.707 10.7071C10.8946 10.5196 10.9999 10.2652 10.9999 10C10.9999 9.73478 10.8946 9.48043 10.707 9.29289C10.5195 9.10536 10.2651 9 9.99992 9H9.33325ZM13.9999 9C13.7347 9 13.4804 9.10536 13.2928 9.29289C13.1053 9.48043 12.9999 9.73478 12.9999 10C12.9999 10.2652 13.1053 10.5196 13.2928 10.7071C13.4804 10.8946 13.7347 11 13.9999 11H22.6666C22.9318 11 23.1862 10.8946 23.3737 10.7071C23.5612 10.5196 23.6666 10.2652 23.6666 10C23.6666 9.73478 23.5612 9.48043 23.3737 9.29289C23.1862 9.10536 22.9318 9 22.6666 9H13.9999ZM9.33325 13.6667C9.06804 13.6667 8.81368 13.772 8.62615 13.9596C8.43861 14.1471 8.33325 14.4015 8.33325 14.6667C8.33325 14.9319 8.43861 15.1862 8.62615 15.3738C8.81368 15.5613 9.06804 15.6667 9.33325 15.6667H9.99992C10.2651 15.6667 10.5195 15.5613 10.707 15.3738C10.8946 15.1862 10.9999 14.9319 10.9999 14.6667C10.9999 14.4015 10.8946 14.1471 10.707 13.9596C10.5195 13.772 10.2651 13.6667 9.99992 13.6667H9.33325ZM13.9999 13.6667C13.7347 13.6667 13.4804 13.772 13.2928 13.9596C13.1053 14.1471 12.9999 14.4015 12.9999 14.6667C12.9999 14.9319 13.1053 15.1862 13.2928 15.3738C13.4804 15.5613 13.7347 15.6667 13.9999 15.6667H22.6666C22.9318 15.6667 23.1862 15.5613 23.3737 15.3738C23.5612 15.1862 23.6666 14.9319 23.6666 14.6667C23.6666 14.4015 23.5612 14.1471 23.3737 13.9596C23.1862 13.772 22.9318 13.6667 22.6666 13.6667H13.9999ZM9.33325 18.3333C9.06804 18.3333 8.81368 18.4387 8.62615 18.6262C8.43861 18.8138 8.33325 19.0681 8.33325 19.3333C8.33325 19.5985 8.43861 19.8529 8.62615 20.0404C8.81368 20.228 9.06804 20.3333 9.33325 20.3333H9.99992C10.2651 20.3333 10.5195 20.228 10.707 20.0404C10.8946 19.8529 10.9999 19.5985 10.9999 19.3333C10.9999 19.0681 10.8946 18.8138 10.707 18.6262C10.5195 18.4387 10.2651 18.3333 9.99992 18.3333H9.33325ZM13.9999 18.3333C13.7347 18.3333 13.4804 18.4387 13.2928 18.6262C13.1053 18.8138 12.9999 19.0681 12.9999 19.3333C12.9999 19.5985 13.1053 19.8529 13.2928 20.0404C13.4804 20.228 13.7347 20.3333 13.9999 20.3333H22.6666C22.9318 20.3333 23.1862 20.228 23.3737 20.0404C23.5612 19.8529 23.6666 19.5985 23.6666 19.3333C23.6666 19.0681 23.5612 18.8138 23.3737 18.6262C23.1862 18.4387 22.9318 18.3333 22.6666 18.3333H13.9999Z" fill="#EFEFEF"/>
</svg>
