<svg width="216" height="46" viewBox="0 0 216 46" fill="none" xmlns="http://www.w3.org/2000/svg">
<path d="M41.25 21.125V6.125H28.125V11.75H16.875V6.125H3.75V21.125H16.875V15.5H20.625V34.25H28.125V39.875H41.25V24.875H28.125V30.5H24.375V15.5H28.125V21.125H41.25Z" fill="#0C0D11"/>
<path d="M73.424 8.1H77.312L85.456 30.5H81.936L80.384 26.244H70.352L68.816 30.5H65.28L73.424 8.1ZM71.584 22.916H79.152L75.36 12.516L71.584 22.916ZM97.5243 25.956L100.5 27.572C99.7749 28.5853 98.8523 29.396 97.7323 30.004C96.6229 30.612 95.4176 30.916 94.1163 30.916C92.6443 30.916 91.3003 30.5373 90.0843 29.78C88.8789 29.0227 87.9136 28.0093 87.1883 26.74C86.4736 25.46 86.1163 24.0467 86.1163 22.5C86.1163 21.3267 86.3243 20.2333 86.7403 19.22C87.1563 18.196 87.7269 17.3 88.4523 16.532C89.1883 15.7533 90.0416 15.1453 91.0123 14.708C91.9829 14.2707 93.0176 14.052 94.1163 14.052C95.4176 14.052 96.6229 14.356 97.7323 14.964C98.8523 15.572 99.7749 16.388 100.5 17.412L97.5243 19.028C97.0763 18.4947 96.5536 18.0893 95.9563 17.812C95.3589 17.524 94.7456 17.38 94.1163 17.38C93.2416 17.38 92.4469 17.62 91.7323 18.1C91.0283 18.5693 90.4683 19.1933 90.0523 19.972C89.6469 20.74 89.4443 21.5827 89.4443 22.5C89.4443 23.4067 89.6523 24.2493 90.0683 25.028C90.4843 25.796 91.0443 26.4147 91.7483 26.884C92.4629 27.3533 93.2523 27.588 94.1163 27.588C94.7776 27.588 95.4069 27.4387 96.0043 27.14C96.6016 26.8413 97.1083 26.4467 97.5243 25.956ZM113.431 25.956L116.407 27.572C115.681 28.5853 114.759 29.396 113.639 30.004C112.529 30.612 111.324 30.916 110.023 30.916C108.551 30.916 107.207 30.5373 105.991 29.78C104.785 29.0227 103.82 28.0093 103.095 26.74C102.38 25.46 102.023 24.0467 102.023 22.5C102.023 21.3267 102.231 20.2333 102.647 19.22C103.063 18.196 103.633 17.3 104.359 16.532C105.095 15.7533 105.948 15.1453 106.919 14.708C107.889 14.2707 108.924 14.052 110.023 14.052C111.324 14.052 112.529 14.356 113.639 14.964C114.759 15.572 115.681 16.388 116.407 17.412L113.431 19.028C112.983 18.4947 112.46 18.0893 111.863 17.812C111.265 17.524 110.652 17.38 110.023 17.38C109.148 17.38 108.353 17.62 107.639 18.1C106.935 18.5693 106.375 19.1933 105.959 19.972C105.553 20.74 105.351 21.5827 105.351 22.5C105.351 23.4067 105.559 24.2493 105.975 25.028C106.391 25.796 106.951 26.4147 107.655 26.884C108.369 27.3533 109.159 27.588 110.023 27.588C110.684 27.588 111.313 27.4387 111.911 27.14C112.508 26.8413 113.015 26.4467 113.431 25.956ZM125.929 30.916C124.457 30.916 123.113 30.5373 121.897 29.78C120.691 29.0227 119.726 28.0093 119.001 26.74C118.286 25.46 117.929 24.0467 117.929 22.5C117.929 21.3267 118.137 20.2333 118.553 19.22C118.969 18.196 119.539 17.3 120.265 16.532C121.001 15.7533 121.854 15.1453 122.825 14.708C123.795 14.2707 124.83 14.052 125.929 14.052C127.401 14.052 128.739 14.4307 129.945 15.188C131.161 15.9453 132.126 16.964 132.841 18.244C133.566 19.524 133.929 20.9427 133.929 22.5C133.929 23.6627 133.721 24.7507 133.305 25.764C132.889 26.7773 132.313 27.6733 131.577 28.452C130.851 29.22 130.003 29.8227 129.033 30.26C128.073 30.6973 127.038 30.916 125.929 30.916ZM125.929 27.588C126.814 27.588 127.609 27.3533 128.313 26.884C129.017 26.4147 129.571 25.796 129.977 25.028C130.393 24.2493 130.601 23.4067 130.601 22.5C130.601 21.572 130.387 20.7187 129.961 19.94C129.545 19.1613 128.985 18.5427 128.281 18.084C127.577 17.6147 126.793 17.38 125.929 17.38C125.054 17.38 124.259 17.6147 123.545 18.084C122.841 18.5533 122.281 19.1773 121.865 19.956C121.459 20.7347 121.257 21.5827 121.257 22.5C121.257 23.4493 121.47 24.308 121.897 25.076C122.323 25.844 122.889 26.4573 123.593 26.916C124.307 27.364 125.086 27.588 125.929 27.588ZM135.561 24.5V14.5H138.889V23.684C138.889 24.3987 139.065 25.0493 139.417 25.636C139.769 26.2227 140.239 26.692 140.825 27.044C141.412 27.3853 142.057 27.556 142.761 27.556C143.476 27.556 144.121 27.3853 144.697 27.044C145.284 26.692 145.748 26.2227 146.089 25.636C146.441 25.0493 146.617 24.3987 146.617 23.684V14.5H149.945L149.961 30.5H146.633L146.617 28.772C146.073 29.4333 145.396 29.956 144.585 30.34C143.775 30.724 142.905 30.916 141.977 30.916C140.793 30.916 139.716 30.628 138.745 30.052C137.775 29.476 137.001 28.7027 136.425 27.732C135.849 26.7613 135.561 25.684 135.561 24.5ZM167.57 20.468V30.5H164.242V21.284C164.242 20.5693 164.066 19.9187 163.714 19.332C163.373 18.7453 162.909 18.2813 162.322 17.94C161.746 17.588 161.095 17.412 160.37 17.412C159.666 17.412 159.021 17.588 158.434 17.94C157.847 18.2813 157.378 18.7453 157.026 19.332C156.674 19.9187 156.498 20.5693 156.498 21.284V30.5H153.17V14.5H156.498V16.196C157.053 15.5347 157.735 15.012 158.546 14.628C159.357 14.244 160.231 14.052 161.17 14.052C162.354 14.052 163.431 14.34 164.402 14.916C165.373 15.492 166.141 16.2653 166.706 17.236C167.282 18.2067 167.57 19.284 167.57 20.468ZM179.212 17.828H175.852L175.836 30.5H172.508L172.524 17.828H169.98V14.5H172.524L172.508 9.476H175.836L175.852 14.5H179.212V17.828ZM181.858 14.5H185.186V30.5H181.858V14.5ZM183.554 12.18C183.042 12.18 182.615 12.0147 182.274 11.684C181.932 11.3533 181.762 10.9373 181.762 10.436C181.762 9.94533 181.932 9.53467 182.274 9.204C182.615 8.86267 183.036 8.692 183.538 8.692C184.028 8.692 184.444 8.86267 184.786 9.204C185.127 9.53467 185.298 9.94533 185.298 10.436C185.298 10.9373 185.127 11.3533 184.786 11.684C184.455 12.0147 184.044 12.18 183.554 12.18ZM197.462 17.828H194.102L194.086 30.5H190.758L190.774 17.828H188.23V14.5H190.774L190.758 9.476H194.086L194.102 14.5H197.462V17.828ZM210.786 14.5H214.338L205.57 38.5H202.034L204.93 30.5L199.186 14.5H202.818L206.594 25.94L210.786 14.5Z" fill="#0C0D11"/>
</svg>
